<?xml version="1.0" encoding="utf-8"?>
<!-- Generator: Adobe Illustrator 22.0.1, SVG Export Plug-In . SVG Version: 6.00 Build 0)  -->
<svg version="1.1" id="Слой_1" xmlns="http://www.w3.org/2000/svg" xmlns:xlink="http://www.w3.org/1999/xlink" x="0px" y="0px"
	 viewBox="0 0 1000 300" style="enable-background:new 0 0 1000 300;" xml:space="preserve">
<style type="text/css">
	.st0{fill:#1C1C1C;}
	.st1{fill:#F4A55D;}
	.st2{fill:#FFFFFF;}
</style>
<g>
	<g>
		<path class="st0" d="M194.1,113.6h39.2c10.5,0,19,2.9,24.1,8.2c3.8,3.9,5.9,8.8,5.9,15c0,12-7.4,18.2-14.6,21.3
			c10.9,3.3,19.7,9.6,19.7,22.5c0,15.8-13.3,25.1-33.4,25.1h-40.9V113.6z M231.6,154.7c12.5,0,21.2-5.7,21.2-16.7
			c0-9.1-7.2-15-20.4-15h-28v31.7H231.6z M235.3,196.4c14,0,22.6-6.2,22.6-16.7c0-10-8.4-15.8-24.5-15.8h-29.1v32.5H235.3z"/>
		<path class="st0" d="M283.2,171.8c0-19.2,15-35.5,35.5-35.5c20.4,0,35.4,16.1,35.4,35.5c0,19.2-15.1,35.5-35.7,35.5
			C298,207.3,283.2,191.3,283.2,171.8z M343.7,171.8c0-14.6-10.9-26.6-25.3-26.6c-14.7,0-24.9,12-24.9,26.6
			c0,14.6,10.8,26.5,25.1,26.5C333.4,198.2,343.7,186.4,343.7,171.8z"/>
		<path class="st0" d="M368.2,171.8c0-19.2,15-35.5,35.5-35.5c20.4,0,35.4,16.1,35.4,35.5c0,19.2-15.1,35.5-35.7,35.5
			C383.1,207.3,368.2,191.3,368.2,171.8z M428.7,171.8c0-14.6-10.9-26.6-25.3-26.6c-14.7,0-24.9,12-24.9,26.6
			c0,14.6,10.8,26.5,25.1,26.5C418.5,198.2,428.7,186.4,428.7,171.8z"/>
		<path class="st0" d="M457.4,109.7h10.1V176l36.7-38.3h12.6l-28.6,29.2l29.5,38.8h-12.1L481.4,174l-13.8,14v17.8h-10.1V109.7z"/>
	</g>
	<g>
		<g>
			<path class="st1" d="M535.8,161.5c0-24.9,18.6-45.6,44.6-45.6c16,0,25.3,5.9,34.1,14.2l-6.5,7.1c-7.4-7.1-15.7-12.1-27.7-12.1
				c-19.5,0-34.1,15.9-34.1,36.4c0,20.4,14.7,36.4,34.1,36.4c12.1,0,20-4.7,28.5-12.7l6.5,6.9c-9.2,9.3-19.3,15-35.3,15
				C554.6,207.1,535.8,187.1,535.8,161.5z"/>
			<path class="st1" d="M631,113.7h9.7v38.2c4.3-7.1,11.1-12.7,22.3-12.7c15.7,0,24.9,10.6,24.9,26.1v40.4h-9.7v-38
				c0-12.1-6.5-19.6-18-19.6c-11.2,0-19.5,8.2-19.5,20.4v37.3H631V113.7z"/>
			<path class="st1" d="M703.7,186.5c0-14,11.3-21.3,27.8-21.3c8.3,0,14.1,1.1,19.9,2.8v-2c0-11.6-7.1-17.6-19.3-17.6
				c-7.7,0-13.7,1.9-19.8,4.7l-2.9-7.9c7.2-3.3,14.1-5.5,23.7-5.5c9.2,0,16.4,2.5,21,7.2c4.5,4.5,6.8,10.8,6.8,19.1v39.8h-9.6v-9.7
				c-4.5,5.8-12,11.1-23.4,11.1C715.7,207,703.7,200.1,703.7,186.5z M751.5,181.7v-6c-4.8-1.4-11.1-2.8-19-2.8
				c-12.1,0-19,5.3-19,13.3c0,8.2,7.6,13,16.4,13C741.8,199.2,751.5,192,751.5,181.7z"/>
			<path class="st1" d="M781.5,140.5h9.7v17c4.8-10.8,14.2-18.6,26.6-18.1v10.5H817c-14.2,0-25.8,10.2-25.8,29.8v25.9h-9.7V140.5z"
				/>
			<path class="st1" d="M832.7,115.6h11.1v10.7h-11.1V115.6z M833.4,140.5h9.7v65.1h-9.7V140.5z"/>
			<path class="st1" d="M869,188.4v-39.3h-9.1v-8.6h9.1v-19.6h9.7v19.6h20.7v8.6h-20.7v38c0,7.9,4.4,10.8,11,10.8
				c3.3,0,6-0.6,9.4-2.3v8.3c-3.4,1.8-7.1,2.8-11.7,2.8C876.9,206.8,869,201.6,869,188.4z"/>
			<path class="st1" d="M912.7,222.9l3.3-7.7c3.1,1.6,6,2.4,10.2,2.4c5.8,0,9.4-3,13.3-12.2l-29.6-64.9h10.7l23.7,54.3l20.9-54.3
				h10.3l-27.3,67.2c-5.5,13.5-11.8,18.4-21.7,18.4C921.1,226.1,917.1,225,912.7,222.9z"/>
		</g>
	</g>
</g>
<g>
	<path class="st0" d="M161.1,111.8c-36.7,0-73.5,0-110.2,0c-2.4,0-4.9-0.2-7.2-0.7c-9.3-2.2-15-8.9-15.5-16.8
		c-0.9-13.7,4.1-18.6,14.6-22.4c2.8-1,6-1,9.1-1c34.8-0.1,69.6,0,104.4,0c1.2,0,2.3,0.1,3.5-0.1c2.5-0.3,4.5-1.8,3.9-4.2
		c-0.4-1.5-2.4-2.8-3.9-3.9c-0.5-0.4-1.5-0.1-2.3-0.1H49.5c-8.5,0-15.8,3.1-22,8.7c-4.5,4.1-7.5,9.2-7.5,15.5
		c-0.1,49.7-0.1,99.4,0,149.1c0,10.4,6.9,19.3,16.8,22.6c1.3,0.5,2.7,0.9,4,1.3h124.9c0.7-2.2,2.2-4.4,2.2-6.6
		c0.1-44.8,0.1-89.7,0.1-134.5C168,112.7,167.1,111.8,161.1,111.8z M159.4,251.6h-112c-12.9,0-19.1-6.2-19.2-19.1V111.9
		c9.3,8,19.5,8.3,30.1,8.2c32.1-0.2,64.2-0.1,96.3-0.1h4.8V251.6z"/>
	<path class="st1" d="M159.4,120.1v131.5h-112c-12.9,0-19.1-6.2-19.2-19.1V111.9c9.3,8,19.5,8.3,30.1,8.2
		c32.1-0.2,64.2-0.1,96.3-0.1H159.4z"/>
	<path class="st0" d="M98.3,87.2c16.8,0,33.7,0,50.5,0c1,0,2.3-0.4,3,0.1c1.4,1,3.6,2.5,3.6,3.7c-0.1,1.5-1.9,3.2-3.3,4.3
		c-0.9,0.6-2.5,0.2-3.8,0.2c-33.4,0-66.8,0-100.2,0c-1.2,0-2.3,0.1-3.5-0.1c-2.5-0.3-4.4-1.8-3.7-4.3c0.4-1.5,2.4-2.8,3.9-3.8
		c0.7-0.5,2-0.1,3-0.1C64.6,87.2,81.4,87.2,98.3,87.2z"/>
	<g>
		<path class="st2" d="M93.7,181.4c6.1-0.1,10.4,2.4,13.3,7.4c1,1.7,1.9,3.4,2.6,5.2c1.8,4.4,4.7,7.5,9.1,9.6
			c7.2,3.5,8.1,16.9,1.6,21.6c-0.9,0.6-2.2,0.9-3.2,0.9c-2.2-0.1-4.5-0.2-6.5-0.8c-11.2-3.7-22.1-3.3-33.4-0.1
			c-9.5,2.7-12.1,0.6-13.9-9.2c-1.3-7.3-0.1-8.9,6.2-12.8c3.2-2,5.6-5.4,8-8.4c1.4-1.7,2-3.9,3.1-5.8
			C83.5,183.8,87.9,181.2,93.7,181.4z"/>
		<path class="st2" d="M117.8,157.5c0.1,4.8-1.4,9.1-4.8,12.6c-4.5,4.7-10.6,3.8-13.8-1.9c-3.3-6-1.6-16.1,3.4-20.7
			c2.6-2.3,5.6-3.3,8.9-2.1c4.1,1.5,5.4,5.2,6.2,9.1C118,155.4,117.8,156.5,117.8,157.5z"/>
		<path class="st2" d="M69.3,157c0.5-2.1,0.7-4.3,1.5-6.3c2.7-6.5,9.8-7.7,14.7-2.6c4.5,4.7,5.9,13.6,3.1,19.5
			c-2.9,6.1-9,7.4-13.8,2.7C71,166.7,69.5,162.2,69.3,157z"/>
		<path class="st2" d="M137,180.4c0,0.1,0,0.2,0,0.2c-0.3,3.4-2.5,7.3-4.9,9.8c-2.3,2.3-5.8,3.2-8.8,2.1c-3.2-1.2-5.8-5.3-5.2-9.5
			c0.4-2.9,1.6-6,3.2-8.5c2.5-3.9,6.8-5.1,10.4-3.7C135.2,172.2,137.2,176.7,137,180.4z"/>
		<path class="st2" d="M50.9,178.2c0-2.8,1.8-6.1,5.1-7.4c3.6-1.4,7.7,0,10.5,3.7c2.7,3.5,3.8,7.5,2.7,12c-1.4,6-7.6,8.4-12.6,4.8
			C52.7,188.5,50.9,184.7,50.9,178.2z"/>
	</g>
</g>
</svg>
